<svg viewBox="0 0 330 200" xmlns="http://www.w3.org/2000/svg"><g><g><g><g><g><line x1="58" y1="177" x2="53" y2="177" style="visibility: inherit;" fill="rgb(0, 0, 0)" stroke="rgb(204, 204, 204)" stroke-width="1px"></line><line x1="58" y1="157.33333333333331" x2="53" y2="157.33333333333331" style="visibility: inherit;" fill="rgb(0, 0, 0)" stroke="rgb(204, 204, 204)" stroke-width="1px"></line><line x1="58" y1="137.66666666666666" x2="53" y2="137.66666666666666" style="visibility: inherit;" fill="rgb(0, 0, 0)" stroke="rgb(204, 204, 204)" stroke-width="1px"></line><line x1="58" y1="118" x2="53" y2="118" style="visibility: inherit;" fill="rgb(0, 0, 0)" stroke="rgb(204, 204, 204)" stroke-width="1px"></line><line x1="58" y1="98.33333333333334" x2="53" y2="98.33333333333334" style="visibility: inherit;" fill="rgb(0, 0, 0)" stroke="rgb(204, 204, 204)" stroke-width="1px"></line><line x1="58" y1="78.66666666666666" x2="53" y2="78.66666666666666" style="visibility: inherit;" fill="rgb(0, 0, 0)" stroke="rgb(204, 204, 204)" stroke-width="1px"></line><line x1="58" y1="59.00000000000001" x2="53" y2="59.00000000000001" style="visibility: inherit;" fill="rgb(0, 0, 0)" stroke="rgb(204, 204, 204)" stroke-width="1px"></line><line x1="58" y1="39.33333333333335" x2="53" y2="39.33333333333335" style="visibility: inherit;" fill="rgb(0, 0, 0)" stroke="rgb(204, 204, 204)" stroke-width="1px"></line><line x1="58" y1="19.666666666666675" x2="53" y2="19.666666666666675" style="visibility: inherit;" fill="rgb(0, 0, 0)" stroke="rgb(204, 204, 204)" stroke-width="1px"></line><line x1="58" y1="0" x2="53" y2="0" style="visibility: inherit;" fill="rgb(0, 0, 0)" stroke="rgb(204, 204, 204)" stroke-width="1px"></line></g><g transform="translate(48, 0)"><text x="0" y="177" dx="0em" dy="0.3em" style="text-anchor: end; visibility: hidden; font-family: Roboto, sans-serif; font-size: 12px; font-weight: 200;" fill="rgb(33, 33, 33)" stroke="none" stroke-width="1px">-0.1</text><text x="0" y="157.33333333333331" dx="0em" dy="0.3em" style="text-anchor: end; visibility: inherit; font-family: Roboto, sans-serif; font-size: 12px; font-weight: 200;" fill="rgb(33, 33, 33)" stroke="none" stroke-width="1px">0</text><text x="0" y="137.66666666666666" dx="0em" dy="0.3em" style="text-anchor: end; visibility: hidden; font-family: Roboto, sans-serif; font-size: 12px; font-weight: 200;" fill="rgb(33, 33, 33)" stroke="none" stroke-width="1px">0.1</text><text x="0" y="118" dx="0em" dy="0.3em" style="text-anchor: end; visibility: inherit; font-family: Roboto, sans-serif; font-size: 12px; font-weight: 200;" fill="rgb(33, 33, 33)" stroke="none" stroke-width="1px">0.2</text><text x="0" y="98.33333333333334" dx="0em" dy="0.3em" style="text-anchor: end; visibility: hidden; font-family: Roboto, sans-serif; font-size: 12px; font-weight: 200;" fill="rgb(33, 33, 33)" stroke="none" stroke-width="1px">0.3</text><text x="0" y="78.66666666666666" dx="0em" dy="0.3em" style="text-anchor: end; visibility: inherit; font-family: Roboto, sans-serif; font-size: 12px; font-weight: 200;" fill="rgb(33, 33, 33)" stroke="none" stroke-width="1px">0.4</text><text x="0" y="59.00000000000001" dx="0em" dy="0.3em" style="text-anchor: end; visibility: hidden; font-family: Roboto, sans-serif; font-size: 12px; font-weight: 200;" fill="rgb(33, 33, 33)" stroke="none" stroke-width="1px">0.5</text><text x="0" y="39.33333333333335" dx="0em" dy="0.3em" style="text-anchor: end; visibility: inherit; font-family: Roboto, sans-serif; font-size: 12px; font-weight: 200;" fill="rgb(33, 33, 33)" stroke="none" stroke-width="1px">0.6</text><text x="0" y="19.666666666666675" dx="0em" dy="0.3em" style="text-anchor: end; visibility: hidden; font-family: Roboto, sans-serif; font-size: 12px; font-weight: 200;" fill="rgb(33, 33, 33)" stroke="none" stroke-width="1px">0.7</text><text x="0" y="0" dx="0em" dy="0.3em" style="text-anchor: end; visibility: hidden; font-family: Roboto, sans-serif; font-size: 12px; font-weight: 200;" fill="rgb(33, 33, 33)" stroke="none" stroke-width="1px">0.8</text></g><line x1="58" y1="0" x2="58" y2="177" fill="rgb(0, 0, 0)" stroke="rgb(204, 204, 204)" stroke-width="1px"></line></g></g><g transform="translate(58, 0)" clip-path="url(#clip_0)"><clipPath id="clip_0"><rect width="271" height="176"></rect></clipPath><g><g><g><line x1="0" y1="0" x2="0" y2="177" fill="rgb(0, 0, 0)" stroke="rgb(66, 66, 66)" stroke-width="1px" opacity="0.25"></line><line x1="22.666666666666664" y1="0" x2="22.666666666666664" y2="177" fill="rgb(0, 0, 0)" stroke="rgb(66, 66, 66)" stroke-width="1px" opacity="0.25"></line><line x1="45.33333333333333" y1="0" x2="45.33333333333333" y2="177" fill="rgb(0, 0, 0)" stroke="rgb(66, 66, 66)" stroke-width="1px" opacity="0.25"></line><line x1="68" y1="0" x2="68" y2="177" fill="rgb(0, 0, 0)" stroke="rgb(66, 66, 66)" stroke-width="1px" opacity="0.25"></line><line x1="90.66666666666666" y1="0" x2="90.66666666666666" y2="177" fill="rgb(0, 0, 0)" stroke="rgb(66, 66, 66)" stroke-width="1px" opacity="0.25"></line><line x1="113.33333333333334" y1="0" x2="113.33333333333334" y2="177" fill="rgb(0, 0, 0)" stroke="rgb(66, 66, 66)" stroke-width="1px" opacity="0.25"></line><line x1="136" y1="0" x2="136" y2="177" fill="rgb(0, 0, 0)" stroke="rgb(66, 66, 66)" stroke-width="1px" opacity="0.25"></line><line x1="158.66666666666669" y1="0" x2="158.66666666666669" y2="177" fill="rgb(0, 0, 0)" stroke="rgb(66, 66, 66)" stroke-width="1px" opacity="0.25"></line><line x1="181.33333333333331" y1="0" x2="181.33333333333331" y2="177" fill="rgb(0, 0, 0)" stroke="rgb(66, 66, 66)" stroke-width="1px" opacity="0.25"></line><line x1="204" y1="0" x2="204" y2="177" fill="rgb(0, 0, 0)" stroke="rgb(66, 66, 66)" stroke-width="1px" opacity="0.25"></line><line x1="226.66666666666669" y1="0" x2="226.66666666666669" y2="177" fill="rgb(0, 0, 0)" stroke="rgb(66, 66, 66)" stroke-width="1px" opacity="0.25"></line><line x1="249.33333333333331" y1="0" x2="249.33333333333331" y2="177" fill="rgb(0, 0, 0)" stroke="rgb(66, 66, 66)" stroke-width="1px" opacity="0.25"></line><line x1="272" y1="0" x2="272" y2="177" fill="rgb(0, 0, 0)" stroke="rgb(66, 66, 66)" stroke-width="1px" opacity="0.25"></line></g><g><line x1="0" y1="177" x2="272" y2="177" fill="rgb(0, 0, 0)" stroke="rgb(66, 66, 66)" stroke-width="1px" opacity="0.25"></line><line x1="0" y1="157.33333333333331" x2="272" y2="157.33333333333331" fill="rgb(0, 0, 0)" stroke="rgb(66, 66, 66)" stroke-width="1px" opacity="0.25"></line><line x1="0" y1="137.66666666666666" x2="272" y2="137.66666666666666" fill="rgb(0, 0, 0)" stroke="rgb(66, 66, 66)" stroke-width="1px" opacity="0.25"></line><line x1="0" y1="118" x2="272" y2="118" fill="rgb(0, 0, 0)" stroke="rgb(66, 66, 66)" stroke-width="1px" opacity="0.25"></line><line x1="0" y1="98.33333333333334" x2="272" y2="98.33333333333334" fill="rgb(0, 0, 0)" stroke="rgb(66, 66, 66)" stroke-width="1px" opacity="0.25"></line><line x1="0" y1="78.66666666666666" x2="272" y2="78.66666666666666" fill="rgb(0, 0, 0)" stroke="rgb(66, 66, 66)" stroke-width="1px" opacity="0.25"></line><line x1="0" y1="59.00000000000001" x2="272" y2="59.00000000000001" fill="rgb(0, 0, 0)" stroke="rgb(66, 66, 66)" stroke-width="1px" opacity="0.25"></line><line x1="0" y1="39.33333333333335" x2="272" y2="39.33333333333335" fill="rgb(0, 0, 0)" stroke="rgb(66, 66, 66)" stroke-width="1px" opacity="0.25"></line><line x1="0" y1="19.666666666666675" x2="272" y2="19.666666666666675" fill="rgb(0, 0, 0)" stroke="rgb(66, 66, 66)" stroke-width="1px" opacity="0.25"></line><line x1="0" y1="0" x2="272" y2="0" fill="rgb(0, 0, 0)" stroke="rgb(66, 66, 66)" stroke-width="1px" opacity="0.25"></line></g></g></g><g><g><line x1="0" y1="157.33333333333331" x2="272" y2="157.33333333333331" fill="rgb(0, 0, 0)" stroke="rgb(153, 153, 153)" stroke-width="1.5px"></line></g></g><g><g><line x1="22.666666666666664" y1="0" x2="22.666666666666664" y2="177" fill="rgb(0, 0, 0)" stroke="rgb(153, 153, 153)" stroke-width="1.5px"></line></g></g><g><g><g><g><g><path stroke="rgb(238, 51, 119)" stroke-width="2px" d="M22.666666666666664,28.274103840192176Z" style="fill: none;" fill="none"></path></g><g><path stroke="rgb(51, 187, 238)" stroke-width="2px" d="M22.666666666666664,82.9344600836436Z" style="fill: none;" fill="none"></path></g><g><path stroke="rgb(204, 51, 17)" stroke-width="2px" d="M22.666666666666664,91.64657457669577L24.93333333333333,-96.15699212749801L27.200000000000003,-0.7349830326579523L29.46666666666667,54.547788201228684L31.733333333333334,78.14567485979083L34,97.37939610163258L36.266666666666666,109.51982243728641L38.53333333333333,125.66427877216853L40.8,126.50781790143195L43.06666666666666,135.44170573748838L45.33333333333333,98.00609636536349L47.599999999999994,114.11742429236538L49.86666666666666,120.02016130888445L52.13333333333334,-150.61962047474435L54.400000000000006,-37.60199041839138L56.66666666666667,21.808561530191128L58.93333333333334,69.86558695474763L61.2,99.63046181732592L63.46666666666667,48.6215719518517L65.73333333333333,64.70298506231907L68,82.73391442269396L70.26666666666668,105.84118766173741L72.53333333333333,123.39399383543446L74.80000000000001,136.0016623448977L77.06666666666666,139.78014603584052L79.33333333333334,143.30055860975085L81.6,134.57310475317493L83.86666666666667,118.69085397576899L86.13333333333333,115.03700327706201L88.4,117.39802449187987L90.66666666666666,62.76460319416278L92.93333333333334,29.08181068843507L95.19999999999999,50.757025562897205L97.46666666666667,91.87042135414033L99.73333333333332,114.42314328925623L102,-43.93958661476175L106.53333333333333,-66.61500194452857L108.80000000000001,9.86424795272312L111.06666666666666,42.44248299671408L113.33333333333334,64.84090742202896L115.6,73.86092821832825L117.86666666666667,79.22730364205215L120.13333333333333,106.60620979724854L122.4,119.32617402164352L124.66666666666666,128.82601814779213L126.93333333333334,129.25493429093717L129.2,116.69671845004072L131.46666666666667,121.88022041863299L133.73333333333332,96.78754059778889L136,104.59007835972463L138.26666666666665,95.41847129216002L140.53333333333336,111.94718683096795L142.8,124.31143458884081L145.06666666666666,77.95356412050862L147.33333333333331,96.01198032688427L149.60000000000002,107.64894895469212L151.86666666666667,60.92353114712634L154.13333333333333,89.23298173285795L156.39999999999998,-327.98698733766565L160.93333333333334,-63.85291368590418L163.2,13.504199217797447L165.46666666666664,48.999006504441205L167.73333333333335,76.74358730393156L170,98.10405167466907L172.26666666666665,95.43750700469718L174.53333333333336,99.9207487490728L176.8,116.93602551342772L179.06666666666666,122.65007272554473L181.33333333333331,127.18572997764569L183.60000000000002,133.6480115436464L185.86666666666667,139.0571390747795L188.13333333333333,141.14145642080524L190.39999999999998,122.4222645455119L192.66666666666669,129.17396722595993L194.93333333333334,136.5464065831568L197.2,137.80764407684404L199.46666666666664,136.02378416719037L201.73333333333335,139.0709953287959L204,140.22612745839675L206.26666666666665,140.71717615690818L208.53333333333336,138.2474440342207L210.8,137.6881702009451L213.06666666666666,95.4786250311302L215.33333333333331,113.49157119302949L217.60000000000002,119.29822574362558L219.86666666666667,109.74956162555257L222.13333333333333,105.30879281232698L224.39999999999998,106.87854070426987L226.66666666666669,115.5326419967133L228.93333333333334,120.37965401993502L231.2,121.79707746298894L233.46666666666664,126.5837113753465L235.73333333333335,129.05395918859085L238,134.04786912464922L240.26666666666665,101.71389657575183L242.53333333333336,103.76329053035357L244.8,114.86532227947897L247.06666666666666,122.83266806257518" style="fill: none;" fill="none"></path></g><g><path stroke="rgb(0, 119, 187)" stroke-width="2px" d="M22.666666666666664,95.8711844086647L24.93333333333333,125.24561925418675L27.200000000000003,136.31134090065754L29.46666666666667,141.87438033491043L31.733333333333334,144.31107312120477L34,145.15652471619055L36.266666666666666,147.8168182768347L38.53333333333333,149.70864875951685L40.8,150.5770355582031L43.06666666666666,151.8606311665158L45.33333333333333,152.74585365948175L47.599999999999994,154.43047533725283L49.86666666666666,155.50540199398273L52.13333333333334,148.17975267523133L54.400000000000006,149.85326933230166L56.66666666666667,150.71815729687302L58.93333333333334,152.66124620007506L61.2,154.14467961369962L63.46666666666667,154.8866728689859L65.73333333333333,154.8687610157488L68,155.36389099545903L70.26666666666668,156.08561529328088L72.53333333333333,155.5102253938612L74.80000000000001,155.93661608685727L77.06666666666666,156.29480061349423L79.33333333333334,156.58397534072802L81.6,156.27593254681665L83.86666666666667,155.6280678553666L86.13333333333333,154.860844693118L88.4,153.92916284509843L90.66666666666666,151.79114312983825L92.93333333333334,152.38614472251328L95.19999999999999,153.2063780928003L97.46666666666667,154.02521821670447L99.73333333333332,155.12372743618806L102,155.12458899016468L104.26666666666668,154.62116821431673L106.53333333333333,152.5960899406393L108.80000000000001,153.61464194616426L111.06666666666666,154.59896992424032L113.33333333333334,153.88708368946973L115.6,154.1892091877317L117.86666666666667,153.54704851919084L120.13333333333333,154.01763914765326L122.4,153.54618088990364L124.66666666666666,154.75383870364755L126.93333333333334,155.05074956156844L129.2,155.42367809435888L131.46666666666667,156.16142262112297L133.73333333333332,156.19784703594692L136,156.55925470558205L138.26666666666665,156.7729608864139L140.53333333333336,156.41428667744734L142.8,154.5743256649797L145.06666666666666,155.01714773127017L147.33333333333331,155.72770864437445L149.60000000000002,156.33680287979777L151.86666666666667,153.26477897156875L154.13333333333333,152.85233269178627L156.39999999999998,150.69071653114005L158.66666666666669,150.71000569240002L160.93333333333334,153.16155813981297L163.2,153.38210873364926L165.46666666666664,154.632655423241L167.73333333333335,153.1678483345253L170,154.45936774933196L172.26666666666665,154.918997115486L174.53333333333336,153.6472764630674L176.8,154.49440881577485L179.06666666666666,154.74108335828197L181.33333333333331,154.25758537226167L183.60000000000002,155.09458354159145L185.86666666666667,155.93418940443664L188.13333333333333,155.55424456867897L190.39999999999998,156.1405659409885L192.66666666666669,154.84152963762625L194.93333333333334,154.98788343323358L197.2,155.74005340725782L199.46666666666664,156.37367716819674L201.73333333333335,156.64959779720135L204,156.9100778908283L206.26666666666665,156.8765254329468L208.53333333333336,156.99428356245733L210.8,157.1284311633343L213.06666666666666,156.31077882350692L215.33333333333331,156.48279661494718L217.60000000000002,156.01079066802993L219.86666666666667,155.8353692762649L222.13333333333333,155.70255392229137L224.39999999999998,156.33783623272726L226.66666666666669,156.68733033719016L228.93333333333334,156.51707908147984L231.2,156.28183375466017L233.46666666666664,156.66206199412807L235.73333333333335,156.90684025377408L238,156.2171672151409L240.26666666666665,155.08163410718774L242.53333333333336,155.8792633886059L244.8,156.34864685128275L247.06666666666666,156.40986789056743" style="fill: none;" fill="none"></path></g></g></g></g><g opacity="0.2"><g><g><g><path stroke="rgb(238, 51, 119)" stroke-width="2px" d="M22.666666666666664,28.274103840192176Z" style="fill: none;" fill="none"></path></g><g><path stroke="rgb(51, 187, 238)" stroke-width="2px" d="M22.666666666666664,82.9344600836436Z" style="fill: none;" fill="none"></path></g><g><path stroke="rgb(204, 51, 17)" stroke-width="2px" d="M22.666666666666664,91.64657457669577L24.93333333333333,-208.83913215001422L27.200000000000003,90.87014569838843L29.46666666666667,119.56032717227937L31.733333333333334,108.95507568120958L34,123.98655671874683L36.266666666666666,126.88082634409268L38.53333333333333,149.2030510952075L40.8,127.75187426805496L43.06666666666666,148.70748798300824L45.33333333333333,42.19222052892051L47.599999999999994,138.19673904776573L49.86666666666666,128.8549933731556L52.13333333333334,-556.0490816434224L54.400000000000006,131.79160668452582L56.66666666666667,110.88248852888742L58.93333333333334,141.93078896900016L61.2,144.27021681269008L63.46666666666667,-27.883992155392995L65.73333333333333,88.82363482316337L68,109.77931960423788L70.26666666666668,140.50133716563386L72.53333333333333,149.7228565464417L74.80000000000001,154.91301575923958L77.06666666666666,145.44784471640983L79.33333333333334,148.58116245766482L81.6,121.48194629947345L83.86666666666667,94.86750219265619L86.13333333333333,109.55623059471449L88.4,120.93955500920613L90.66666666666666,-19.185510635375977L92.93333333333334,-21.442371368408203L95.19999999999999,83.26984528700511L97.46666666666667,153.5405120961368L99.73333333333332,148.25222522268692L102,-281.48367738723755L106.53333333333333,-75.54633116722108L108.80000000000001,124.58312237262726L111.06666666666666,91.30983545382819L113.33333333333334,98.43854401508968L115.6,87.39095940192541L117.86666666666667,87.27686677376431L120.13333333333333,147.67456901818514L122.4,138.40612035493055L124.66666666666666,143.07578433553377L126.93333333333334,129.8983085056146L129.2,97.859394689401L131.46666666666667,129.6554733713468L133.73333333333332,59.14852086702984L136,116.29388500253359L138.26666666666665,81.66106069087984L140.53333333333336,136.7402601391077L142.8,142.8578062256177L145.06666666666666,8.416758418083198L147.33333333333331,123.09960463643074L149.60000000000002,125.10440189639728L151.86666666666667,-9.164595564206419L154.13333333333333,131.69715761144957L156.39999999999998,-953.8169409434L158.66666666666669,43.312750101089485L160.93333333333334,109.56835432847343L163.2,129.53986857334772L165.46666666666664,102.24121743440628L167.73333333333335,118.36045850316684L170,130.1447482307752L172.26666666666665,91.43768999973932L174.53333333333336,106.6456113656362L176.8,142.45894065996012L179.06666666666666,131.22114354372025L181.33333333333331,133.98921585579714L183.60000000000002,143.34143389264742L185.86666666666667,147.1708303714792L188.13333333333333,144.26793243984383L190.39999999999998,94.34347673257193L192.66666666666669,139.30152124663195L194.93333333333334,147.6050656189521L197.2,139.69950031737486L199.46666666666664,133.3479943027099L201.73333333333335,143.64181207120419L204,141.958825652798L206.26666666666665,141.45374920467535L208.53333333333336,134.5428458501895L210.8,136.84925945103168L213.06666666666666,32.16430727640789L215.33333333333331,140.51099043587845L217.60000000000002,128.00820756951967L219.86666666666667,95.4265654484431L222.13333333333333,98.64763959248862L224.39999999999998,109.2331625421842L226.66666666666669,128.5137939353784L228.93333333333334,127.65017205476761L231.2,123.92321262756982L233.46666666666664,133.7636622438828L235.73333333333335,132.75933090845743L238,141.53873402873677L240.26666666666665,53.21293775240581L242.53333333333336,106.83738146225612L244.8,131.5183699031671L247.06666666666666,134.7836867372195" style="fill: none;" fill="none"></path></g><g><path stroke="rgb(0, 119, 187)" stroke-width="2px" d="M22.666666666666664,95.8711844086647L24.93333333333333,142.87028016149998L27.200000000000003,146.93443368126947L29.46666666666667,148.41651470959187L31.733333333333334,147.49241922299066L34,146.32608863463005L36.266666666666666,151.62108063325286L38.53333333333333,152.46695576484004L40.8,151.85773741081357L43.06666666666666,153.76662104949355L45.33333333333333,154.06565849607188L47.599999999999994,156.94824021713185L49.86666666666666,157.11428215703927L52.13333333333334,137.20563040673733L54.400000000000006,152.36157716189823L56.66666666666667,152.01487925772864L58.93333333333334,155.57505730477473L61.2,156.3694530905535L63.46666666666667,155.99954971671104L65.73333333333333,154.8418948731075L68,156.10655881091952L70.26666666666668,157.16817799136817L72.53333333333333,154.64715190480152L74.80000000000001,156.5761970753471L77.06666666666666,156.83207485762736L79.33333333333334,157.0177361983806L81.6,155.81386914414665L83.86666666666667,154.65627181281644L86.13333333333333,153.71001065646607L88.4,152.53164058799544L90.66666666666666,148.58411426593858L92.93333333333334,153.2786469931404L95.19999999999999,154.43672805031142L97.46666666666667,155.253478343909L99.73333333333332,156.77149121820307L102,155.12588132110733L104.26666666666668,153.86603705833355L106.53333333333333,149.5584725489219L108.80000000000001,155.14246994877857L111.06666666666666,156.07546188806495L113.33333333333334,152.8192543387413L115.6,154.64239743476114L117.86666666666667,152.58380751684308L120.13333333333333,154.72352509014308L122.4,152.83899350340167L124.66666666666666,156.56532542407513L126.93333333333334,155.49611584842205L129.2,155.9830708935236L131.46666666666667,157.26803941124427L133.73333333333332,156.25248365818211L136,157.1013662100304L138.26666666666665,157.09352015766007L140.53333333333336,155.8762753639991L142.8,151.81438414628306L145.06666666666666,155.68138083070517L147.33333333333331,156.7935500140302L149.60000000000002,157.25044423293244L151.86666666666667,148.65674310922623L154.13333333333333,152.2336632721126L156.39999999999998,147.44829229017097L158.66666666666669,150.73893943428993L160.93333333333334,156.8388868109323L163.2,153.71293462440372L165.46666666666664,156.50847545762858L167.73333333333335,150.97063770145178L170,156.39664687154195L172.26666666666665,155.60844116471708L174.53333333333336,151.73969548443955L176.8,155.765107344836L179.06666666666666,155.11109517204267L181.33333333333331,153.5323383932312L183.60000000000002,156.3500807955861L185.86666666666667,157.19359819870442L188.13333333333333,154.9843273150424L190.39999999999998,157.0200479994528L192.66666666666669,152.89297518258294L194.93333333333334,155.20741412664452L197.2,156.86830836829418L199.46666666666664,157.32411280960514L201.73333333333335,157.0634787407083L204,157.30079803126864L206.26666666666665,156.82619674612457L208.53333333333336,157.17092075672312L210.8,157.32965256464982L213.06666666666666,155.0843003137658L215.33333333333331,156.74082330210754L217.60000000000002,155.30278174765408L219.86666666666667,155.57223718861738L222.13333333333333,155.50333089133105L224.39999999999998,157.29075969838112L226.66666666666669,157.21157149388455L228.93333333333334,156.26170219791433L231.2,155.92896576443067L233.46666666666664,157.2324043533299L235.73333333333335,157.27400764324312L238,155.18265765719116L240.26666666666665,153.37833444525796L242.53333333333336,157.0757073107331L244.8,157.05272204529805L247.06666666666666,156.50169944949448" style="fill: none;" fill="none"></path></g></g></g></g></g></g><g transform="translate(58, 177)" clip-path="url(#clip_1)"><clipPath id="clip_1"><rect width="271" height="22"></rect></clipPath><g><g><line x1="0" y1="0" x2="0" y2="5" style="visibility: inherit;" fill="rgb(0, 0, 0)" stroke="rgb(204, 204, 204)" stroke-width="1px"></line><line x1="22.666666666666664" y1="0" x2="22.666666666666664" y2="5" style="visibility: inherit;" fill="rgb(0, 0, 0)" stroke="rgb(204, 204, 204)" stroke-width="1px"></line><line x1="45.33333333333333" y1="0" x2="45.33333333333333" y2="5" style="visibility: inherit;" fill="rgb(0, 0, 0)" stroke="rgb(204, 204, 204)" stroke-width="1px"></line><line x1="68" y1="0" x2="68" y2="5" style="visibility: inherit;" fill="rgb(0, 0, 0)" stroke="rgb(204, 204, 204)" stroke-width="1px"></line><line x1="90.66666666666666" y1="0" x2="90.66666666666666" y2="5" style="visibility: inherit;" fill="rgb(0, 0, 0)" stroke="rgb(204, 204, 204)" stroke-width="1px"></line><line x1="113.33333333333334" y1="0" x2="113.33333333333334" y2="5" style="visibility: inherit;" fill="rgb(0, 0, 0)" stroke="rgb(204, 204, 204)" stroke-width="1px"></line><line x1="136" y1="0" x2="136" y2="5" style="visibility: inherit;" fill="rgb(0, 0, 0)" stroke="rgb(204, 204, 204)" stroke-width="1px"></line><line x1="158.66666666666669" y1="0" x2="158.66666666666669" y2="5" style="visibility: inherit;" fill="rgb(0, 0, 0)" stroke="rgb(204, 204, 204)" stroke-width="1px"></line><line x1="181.33333333333331" y1="0" x2="181.33333333333331" y2="5" style="visibility: inherit;" fill="rgb(0, 0, 0)" stroke="rgb(204, 204, 204)" stroke-width="1px"></line><line x1="204" y1="0" x2="204" y2="5" style="visibility: inherit;" fill="rgb(0, 0, 0)" stroke="rgb(204, 204, 204)" stroke-width="1px"></line><line x1="226.66666666666669" y1="0" x2="226.66666666666669" y2="5" style="visibility: inherit;" fill="rgb(0, 0, 0)" stroke="rgb(204, 204, 204)" stroke-width="1px"></line><line x1="249.33333333333331" y1="0" x2="249.33333333333331" y2="5" style="visibility: inherit;" fill="rgb(0, 0, 0)" stroke="rgb(204, 204, 204)" stroke-width="1px"></line><line x1="272" y1="0" x2="272" y2="5" style="visibility: inherit;" fill="rgb(0, 0, 0)" stroke="rgb(204, 204, 204)" stroke-width="1px"></line></g><g transform="translate(0, 8)"><text x="0" y="0" dx="0em" dy="0.95em" style="text-anchor: middle; visibility: hidden; font-family: Roboto, sans-serif; font-size: 12px; font-weight: 200;" fill="rgb(33, 33, 33)" stroke="none" stroke-width="1px">-10</text><text x="22.666666666666664" y="0" dx="0em" dy="0.95em" style="text-anchor: middle; visibility: inherit; font-family: Roboto, sans-serif; font-size: 12px; font-weight: 200;" fill="rgb(33, 33, 33)" stroke="none" stroke-width="1px">0</text><text x="45.33333333333333" y="0" dx="0em" dy="0.95em" style="text-anchor: middle; visibility: inherit; font-family: Roboto, sans-serif; font-size: 12px; font-weight: 200;" fill="rgb(33, 33, 33)" stroke="none" stroke-width="1px">10</text><text x="68" y="0" dx="0em" dy="0.95em" style="text-anchor: middle; visibility: inherit; font-family: Roboto, sans-serif; font-size: 12px; font-weight: 200;" fill="rgb(33, 33, 33)" stroke="none" stroke-width="1px">20</text><text x="90.66666666666666" y="0" dx="0em" dy="0.95em" style="text-anchor: middle; visibility: inherit; font-family: Roboto, sans-serif; font-size: 12px; font-weight: 200;" fill="rgb(33, 33, 33)" stroke="none" stroke-width="1px">30</text><text x="113.33333333333334" y="0" dx="0em" dy="0.95em" style="text-anchor: middle; visibility: inherit; font-family: Roboto, sans-serif; font-size: 12px; font-weight: 200;" fill="rgb(33, 33, 33)" stroke="none" stroke-width="1px">40</text><text x="136" y="0" dx="0em" dy="0.95em" style="text-anchor: middle; visibility: inherit; font-family: Roboto, sans-serif; font-size: 12px; font-weight: 200;" fill="rgb(33, 33, 33)" stroke="none" stroke-width="1px">50</text><text x="158.66666666666669" y="0" dx="0em" dy="0.95em" style="text-anchor: middle; visibility: inherit; font-family: Roboto, sans-serif; font-size: 12px; font-weight: 200;" fill="rgb(33, 33, 33)" stroke="none" stroke-width="1px">60</text><text x="181.33333333333331" y="0" dx="0em" dy="0.95em" style="text-anchor: middle; visibility: inherit; font-family: Roboto, sans-serif; font-size: 12px; font-weight: 200;" fill="rgb(33, 33, 33)" stroke="none" stroke-width="1px">70</text><text x="204" y="0" dx="0em" dy="0.95em" style="text-anchor: middle; visibility: inherit; font-family: Roboto, sans-serif; font-size: 12px; font-weight: 200;" fill="rgb(33, 33, 33)" stroke="none" stroke-width="1px">80</text><text x="226.66666666666669" y="0" dx="0em" dy="0.95em" style="text-anchor: middle; visibility: inherit; font-family: Roboto, sans-serif; font-size: 12px; font-weight: 200;" fill="rgb(33, 33, 33)" stroke="none" stroke-width="1px">90</text><text x="249.33333333333331" y="0" dx="0em" dy="0.95em" style="text-anchor: middle; visibility: inherit; font-family: Roboto, sans-serif; font-size: 12px; font-weight: 200;" fill="rgb(33, 33, 33)" stroke="none" stroke-width="1px">100</text><text x="272" y="0" dx="0em" dy="0.95em" style="text-anchor: middle; visibility: hidden; font-family: Roboto, sans-serif; font-size: 12px; font-weight: 200;" fill="rgb(33, 33, 33)" stroke="none" stroke-width="1px">110</text></g><line x1="0" y1="0" x2="272" y2="0" fill="rgb(0, 0, 0)" stroke="rgb(204, 204, 204)" stroke-width="1px"></line></g></g></g></g></svg>