<svg viewBox="0 0 330 200" xmlns="http://www.w3.org/2000/svg"><g><g><g><g><g><line x1="43" y1="136.70423183653423" x2="38" y2="136.70423183653423" style="visibility: inherit;" fill="rgb(0, 0, 0)" stroke="rgb(204, 204, 204)" stroke-width="1px"></line><line x1="43" y1="24.02978937939102" x2="38" y2="24.02978937939102" style="visibility: inherit;" fill="rgb(0, 0, 0)" stroke="rgb(204, 204, 204)" stroke-width="1px"></line></g><g transform="translate(33, 0)"><text x="0" y="136.70423183653423" dx="0em" dy="0.3em" style="text-anchor: end; visibility: inherit; font-family: Roboto, sans-serif; font-size: 12px; font-weight: 200;" fill="rgb(33, 33, 33)" stroke="none" stroke-width="1px">0.9</text><text x="0" y="24.02978937939102" dx="0em" dy="0.3em" style="text-anchor: end; visibility: inherit; font-family: Roboto, sans-serif; font-size: 12px; font-weight: 200;" fill="rgb(33, 33, 33)" stroke="none" stroke-width="1px">1</text></g><line x1="43" y1="0" x2="43" y2="177" fill="rgb(0, 0, 0)" stroke="rgb(204, 204, 204)" stroke-width="1px"></line></g></g><g transform="translate(43, 0)" clip-path="url(#clip_0)"><clipPath id="clip_0"><rect width="286" height="176"></rect></clipPath><g><g><g><line x1="0" y1="0" x2="0" y2="177" fill="rgb(0, 0, 0)" stroke="rgb(66, 66, 66)" stroke-width="1px" opacity="0.25"></line><line x1="23.916666666666664" y1="0" x2="23.916666666666664" y2="177" fill="rgb(0, 0, 0)" stroke="rgb(66, 66, 66)" stroke-width="1px" opacity="0.25"></line><line x1="47.83333333333333" y1="0" x2="47.83333333333333" y2="177" fill="rgb(0, 0, 0)" stroke="rgb(66, 66, 66)" stroke-width="1px" opacity="0.25"></line><line x1="71.75" y1="0" x2="71.75" y2="177" fill="rgb(0, 0, 0)" stroke="rgb(66, 66, 66)" stroke-width="1px" opacity="0.25"></line><line x1="95.66666666666666" y1="0" x2="95.66666666666666" y2="177" fill="rgb(0, 0, 0)" stroke="rgb(66, 66, 66)" stroke-width="1px" opacity="0.25"></line><line x1="119.58333333333334" y1="0" x2="119.58333333333334" y2="177" fill="rgb(0, 0, 0)" stroke="rgb(66, 66, 66)" stroke-width="1px" opacity="0.25"></line><line x1="143.5" y1="0" x2="143.5" y2="177" fill="rgb(0, 0, 0)" stroke="rgb(66, 66, 66)" stroke-width="1px" opacity="0.25"></line><line x1="167.41666666666669" y1="0" x2="167.41666666666669" y2="177" fill="rgb(0, 0, 0)" stroke="rgb(66, 66, 66)" stroke-width="1px" opacity="0.25"></line><line x1="191.33333333333331" y1="0" x2="191.33333333333331" y2="177" fill="rgb(0, 0, 0)" stroke="rgb(66, 66, 66)" stroke-width="1px" opacity="0.25"></line><line x1="215.25" y1="0" x2="215.25" y2="177" fill="rgb(0, 0, 0)" stroke="rgb(66, 66, 66)" stroke-width="1px" opacity="0.25"></line><line x1="239.16666666666669" y1="0" x2="239.16666666666669" y2="177" fill="rgb(0, 0, 0)" stroke="rgb(66, 66, 66)" stroke-width="1px" opacity="0.25"></line><line x1="263.0833333333333" y1="0" x2="263.0833333333333" y2="177" fill="rgb(0, 0, 0)" stroke="rgb(66, 66, 66)" stroke-width="1px" opacity="0.25"></line><line x1="287" y1="0" x2="287" y2="177" fill="rgb(0, 0, 0)" stroke="rgb(66, 66, 66)" stroke-width="1px" opacity="0.25"></line></g><g><line x1="0" y1="136.70423183653423" x2="287" y2="136.70423183653423" fill="rgb(0, 0, 0)" stroke="rgb(66, 66, 66)" stroke-width="1px" opacity="0.25"></line><line x1="0" y1="24.02978937939102" x2="287" y2="24.02978937939102" fill="rgb(0, 0, 0)" stroke="rgb(66, 66, 66)" stroke-width="1px" opacity="0.25"></line></g></g></g><g><g><line x1="23.916666666666664" y1="0" x2="23.916666666666664" y2="177" fill="rgb(0, 0, 0)" stroke="rgb(153, 153, 153)" stroke-width="1.5px"></line></g></g><g><g><g><g><g><path stroke="rgb(238, 51, 119)" stroke-width="2px" d="M23.916666666666664,156.69394682656716Z" style="fill: none;" fill="none"></path></g><g><path stroke="rgb(51, 187, 238)" stroke-width="2px" d="M23.916666666666664,140.67241724808844Z" style="fill: none;" fill="none"></path></g><g><path stroke="rgb(204, 51, 17)" stroke-width="2px" d="M23.916666666666664,117.08130764854866L26.30833333333333,266.8491068050135L28.700000000000003,182.53458179083634L31.09166666666667,129.12263310004482L33.483333333333334,111.22776034977792L35.875,101.55046231265086L38.266666666666666,88.26290485167436L40.65833333333333,72.98975815956389L43.05,79.15224540212101L45.44166666666666,64.04688788715362L47.83333333333333,96.44685049751119L50.224999999999994,81.80329043817355L52.61666666666666,76.87620993704745L55.00833333333334,200.78350148473905L57.400000000000006,138.34808528184277L59.79166666666667,121.94422535278339L62.18333333333334,89.24202045035928L64.575,70.09361478500965L66.96666666666667,107.74734470896541L69.35833333333333,115.34689417436338L71.75,108.29824753602381L74.14166666666668,92.62734863575484L76.53333333333333,68.36711894215067L78.92500000000001,50.410923685123116L81.31666666666666,50.68853506750643L83.70833333333334,54.51670186683527L86.1,64.1970201059929L88.49166666666667,77.51650041734808L90.88333333333333,93.1672196272309L93.275,98.83891588635932L95.66666666666666,141.3136319330376L98.05833333333334,175.81784089517095L100.44999999999999,143.92953062325546L102.84166666666667,94.34519956059323L105.23333333333332,73.10017020102123L107.625,206.55846044554528L112.40833333333333,234.2857308522628L114.80000000000001,169.39098740022186L117.19166666666666,132.26398424222467L119.58333333333334,122.25023572201304L121.975,120.17966550700004L124.36666666666667,111.17638577967479L126.75833333333333,86.74147789545623L129.15,72.34410805672302L131.54166666666666,60.10442100700971L133.93333333333334,63.87019368778525L136.325,92.41136832184289L138.71666666666667,90.76733659104487L141.10833333333332,108.90601317912211L143.5,92.9868664746836L145.89166666666665,106.40283667681507L148.28333333333336,87.71627539352893L150.675,80.41020091423933L153.06666666666666,106.41679841591066L155.45833333333331,91.51470524953604L157.85000000000002,82.67211702554923L160.24166666666667,111.66896515423942L162.63333333333333,90.81808287609661L165.02499999999998,262.20776643833165L167.41666666666669,210.22600252781064L169.80833333333334,151.71428571428575L172.2,110.32803722378868L174.59166666666664,109.157165929552L176.98333333333335,93.13532444393287L179.375,87.41189596009585L181.76666666666665,95.36365222786716L184.15833333333336,88.74119754589614L186.55,73.52744334299257L188.94166666666666,68.21067288695475L191.33333333333331,61.33557022913301L193.72500000000002,53.56079969309935L196.11666666666667,48.92292471878018L198.50833333333333,46.1498236757611L200.89999999999998,66.51620038252864L203.29166666666669,60.325078680169696L205.68333333333334,52.958781624743324L208.075,48.563236239279846L210.46666666666664,53.236437275260876L212.85833333333335,48.72913763083932L215.25,46.03384831797737L217.64166666666665,44.41992936768908L220.03333333333336,43.45274581991322L222.425,42.87285527974724L224.81666666666666,75.67584411933298L227.20833333333331,65.77969415504865L229.60000000000002,63.578328458881444L231.99166666666667,69.67424834845473L234.38333333333333,77.0880488593908L236.77499999999998,77.80597960401255L239.16666666666669,74.49345741186333L241.55833333333334,72.51085799330143L243.95,63.897065404418626L246.34166666666664,62.450675951438036L248.73333333333335,61.58378034627588L251.125,57.37997327600566L253.51666666666665,77.10939783341637L255.90833333333336,81.57398864302763L258.3,69.2820614459311L260.69166666666666,61.974154741365965" style="fill: none;" fill="none"></path></g><g><path stroke="rgb(0, 119, 187)" stroke-width="2px" d="M23.916666666666664,131.43613794369082L26.30833333333333,78.57111130518982L28.700000000000003,60.38508128649688L31.09166666666667,53.0200268290034L33.483333333333334,48.75528603334877L35.875,45.91725393056066L38.266666666666666,40.822253860890754L40.65833333333333,37.86922546880287L43.05,36.61898650114492L45.44166666666666,33.462790884872334L47.83333333333333,32.0662884704996L50.224999999999994,28.83742009712871L52.61666666666666,26.909257428608946L55.00833333333334,36.77023595025167L57.400000000000006,36.45342264870039L59.79166666666667,34.34158361059399L62.18333333333334,31.639579070472355L64.575,29.544038802552922L66.96666666666667,28.28881873171235L69.35833333333333,28.490600605731295L71.75,27.657430796363105L74.14166666666668,26.204878124002025L76.53333333333333,27.239513901084894L78.92500000000001,26.430714177836617L81.31666666666666,25.945730245123755L83.70833333333334,25.178940636338375L86.1,25.67077014625819L88.49166666666667,26.91869952320598L90.88333333333333,29.099863568949935L93.275,30.41070003612573L95.66666666666666,33.11367801027627L98.05833333333334,32.34103148735231L100.44999999999999,31.877711422053366L102.84166666666667,29.686844724207262L105.23333333333332,28.374475910421417L107.625,28.541996411124796L110.01666666666668,29.119995966797795L112.40833333333333,32.33710869640016L114.80000000000001,30.439933907946326L117.19166666666666,29.30324244407387L119.58333333333334,31.011191697113425L121.975,29.645596356841686L124.36666666666667,29.782377274579705L126.75833333333333,29.386647139482992L129.15,30.104869203771067L131.54166666666666,28.147709659922423L133.93333333333334,27.451861520234868L136.325,26.558025196464296L138.71666666666667,25.546013509502096L141.10833333333332,25.41506405410413L143.5,24.860738835155942L145.89166666666665,24.528281570029094L148.28333333333336,25.28014712522213L150.675,27.160635011240707L153.06666666666666,26.859892609723097L155.45833333333331,26.203101255686526L157.85000000000002,25.333246431059337L160.24166666666667,29.578740199668022L162.63333333333333,31.655328100295606L165.02499999999998,35.78263182245378L167.41666666666669,35.86107509259552L169.80833333333334,31.59139558654467L172.2,30.471289229360522L174.59166666666664,28.84449630276778L176.98333333333335,32.1713023649716L179.375,29.384822891835956L181.76666666666665,27.71641358319301L184.15833333333336,29.1017429122828L186.55,28.023806960113912L188.94166666666666,27.854451031763183L191.33333333333331,29.184670602844005L193.72500000000002,27.596504920723408L196.11666666666667,26.16839090530078L198.50833333333333,26.264603060898594L200.89999999999998,25.8461070453101L203.29166666666669,26.071203693004954L205.68333333333334,27.1592214306432L208.075,26.382578223963943L210.46666666666664,25.440841440661647L212.85833333333335,24.876197177675767L215.25,24.53755366578813L217.64166666666665,25.285714285714235L220.03333333333336,24.783167314310322L222.425,24.481752449074396L224.81666666666666,26.204296622540745L227.20833333333331,26.286148284865813L229.60000000000002,27.288314280628434L231.99166666666667,27.890064976810663L234.38333333333333,27.297367813178568L236.77499999999998,25.989138116194184L239.16666666666669,25.20496778725557L241.55833333333334,26.162523823694233L243.95,26.73746926550174L246.34166666666664,25.65357449728629L248.73333333333335,25.00376455708665L251.125,26.04168920237292L253.51666666666665,27.14149461270945L255.90833333333336,25.895725806742742L258.3,25.148960504802552L260.69166666666666,25.65277318832483" style="fill: none;" fill="none"></path></g></g></g></g><g opacity="0.2"><g><g><g><path stroke="rgb(238, 51, 119)" stroke-width="2px" d="M23.916666666666664,156.69394682656716Z" style="fill: none;" fill="none"></path></g><g><path stroke="rgb(51, 187, 238)" stroke-width="2px" d="M23.916666666666664,140.67241724808844Z" style="fill: none;" fill="none"></path></g><g><path stroke="rgb(204, 51, 17)" stroke-width="2px" d="M23.916666666666664,117.08130764854866L26.30833333333333,367.93710247806825L28.700000000000003,107.40325913951081L31.09166666666667,69.54383353398471L33.483333333333334,88.3060181660604L35.875,88.3060181660604L38.266666666666666,69.54383353398471L40.65833333333333,51.105085336389564L43.05,88.3060181660604L45.44166666666666,42.00360862770608L47.83333333333333,146.65239798491467L50.224999999999994,60.28475312751181L52.61666666666666,69.54383353398471L55.00833333333334,418.27199181787694L57.400000000000006,51.105085336389564L59.79166666666667,97.81201035719401L62.18333333333334,42.00360862770608L64.575,42.00360862770608L66.96666666666667,166.83067755420487L69.35833333333333,126.84774129864954L71.75,97.81201035719401L74.14166666666668,69.54383353398471L76.53333333333333,32.97893847096289L78.92500000000001,24.02978937939102L81.31666666666666,51.105085336389564L83.70833333333334,60.28475312751181L86.1,78.88378021932665L88.49166666666667,97.81201035719401L90.88333333333333,117.08130764854866L93.275,107.40325913951081L95.66666666666666,208.36673364118818L98.05833333333334,229.75578873738024L100.44999999999999,97.81201035719401L102.84166666666667,24.02978937939102L105.23333333333332,42.00360862770608L107.625,444.3566282407833L112.40833333333333,229.75578873738024L114.80000000000001,78.88378021932665L117.19166666666666,78.88378021932665L119.58333333333334,107.40325913951081L121.975,117.08130764854866L124.36666666666667,97.81201035719401L126.75833333333333,51.105085336389564L129.15,51.105085336389564L131.54166666666666,42.00360862770608L133.93333333333334,69.54383353398471L136.325,136.7042601664395L138.71666666666667,88.3060181660604L141.10833333333332,136.7042601664395L143.5,69.54383353398471L145.89166666666665,126.84774129864954L148.28333333333336,60.28475312751181L150.675,69.54383353398471L153.06666666666666,146.65239798491467L155.45833333333331,69.54383353398471L157.85000000000002,69.54383353398471L160.24166666666667,156.69394682656716L162.63333333333333,60.28475312751181L165.02499999999998,585.2731479097966L167.41666666666669,136.7042601664395L169.80833333333334,69.54383353398471L172.2,51.105085336389564L174.59166666666664,107.40325913951081L176.98333333333335,69.54383353398471L179.375,78.88378021932665L181.76666666666665,107.40325913951081L184.15833333333336,78.88378021932665L186.55,51.105085336389564L188.94166666666666,60.28475312751181L191.33333333333331,51.105085336389564L193.72500000000002,42.00360862770608L196.11666666666667,42.00360862770608L198.50833333333333,42.00360862770608L200.89999999999998,97.81201035719401L203.29166666666669,51.105085336389564L205.68333333333334,42.00360862770608L208.075,42.00360862770608L210.46666666666664,60.28475312751181L212.85833333333335,42.00360862770608L215.25,42.00360862770608L217.64166666666665,42.00360862770608L220.03333333333336,42.00360862770608L222.425,42.00360862770608L224.81666666666666,126.84774129864954L227.20833333333331,51.105085336389564L229.60000000000002,60.28475312751181L231.99166666666667,78.88378021932665L234.38333333333333,88.3060181660604L236.77499999999998,78.88378021932665L239.16666666666669,69.54383353398471L241.55833333333334,69.54383353398471L243.95,51.105085336389564L246.34166666666664,60.28475312751181L248.73333333333335,60.28475312751181L251.125,51.105085336389564L253.51666666666665,107.40325913951081L255.90833333333336,88.3060181660604L258.3,51.105085336389564L260.69166666666666,51.105085336389564" style="fill: none;" fill="none"></path></g><g><path stroke="rgb(0, 119, 187)" stroke-width="2px" d="M23.916666666666664,131.43613794369082L26.30833333333333,48.06266673488273L28.700000000000003,43.21271596862922L31.09166666666667,44.42312693059917L33.483333333333334,43.21271596862922L35.875,42.00360862770608L38.266666666666666,33.57824099560323L40.65833333333333,33.57824099560323L43.05,34.77779014921232L45.44166666666666,28.79332637092064L47.83333333333333,29.987581459019054L50.224999999999994,24.02978937939102L52.61666666666666,24.02978937939102L55.00833333333334,51.71463525874831L57.400000000000006,35.97875078746409L59.79166666666667,31.18310753292488L62.18333333333334,27.60046741548533L64.575,26.40893752605951L66.96666666666667,26.40893752605951L69.35833333333333,28.79332637092064L71.75,26.40893752605951L74.14166666666668,24.02978937939102L76.53333333333333,28.79332637092064L78.92500000000001,25.218669931097125L81.31666666666666,25.218669931097125L83.70833333333334,24.02978937939102L86.1,26.40893752605951L88.49166666666667,28.79332637092064L90.88333333333333,32.37997160770955L93.275,32.37997160770955L95.66666666666666,37.18099709455156L98.05833333333334,31.18310753292488L100.44999999999999,31.18310753292488L102.84166666666667,26.40893752605951L105.23333333333332,26.40893752605951L107.625,28.79332637092064L110.01666666666668,29.987581459019054L112.40833333333333,37.18099709455156L114.80000000000001,27.60046741548533L117.19166666666666,27.60046741548533L119.58333333333334,33.57824099560323L121.975,27.60046741548533L124.36666666666667,29.987581459019054L126.75833333333333,28.79332637092064L129.15,31.18310753292488L131.54166666666666,25.218669931097125L133.93333333333334,26.40893752605951L136.325,25.218669931097125L138.71666666666667,24.02978937939102L141.10833333333332,25.218669931097125L143.5,24.02978937939102L145.89166666666665,24.02978937939102L148.28333333333336,26.40893752605951L150.675,29.987581459019054L153.06666666666666,26.40893752605951L155.45833333333331,25.218669931097125L157.85000000000002,24.02978937939102L160.24166666666667,35.97875078746409L162.63333333333333,34.77779014921232L165.02499999999998,42.00360862770608L167.41666666666669,35.97875078746409L169.80833333333334,25.218669931097125L172.2,28.79332637092064L174.59166666666664,26.40893752605951L176.98333333333335,37.18099709455156L179.375,25.218669931097125L181.76666666666665,25.218669931097125L184.15833333333336,31.18310753292488L186.55,26.40893752605951L188.94166666666666,27.60046741548533L191.33333333333331,31.18310753292488L193.72500000000002,25.218669931097125L196.11666666666667,24.02978937939102L198.50833333333333,26.40893752605951L200.89999999999998,25.218669931097125L203.29166666666669,26.40893752605951L205.68333333333334,28.79332637092064L208.075,25.218669931097125L210.46666666666664,24.02978937939102L212.85833333333335,24.02978937939102L215.25,24.02978937939102L217.64166666666665,26.40893752605951L220.03333333333336,24.02978937939102L222.425,24.02978937939102L224.81666666666666,28.79332637092064L227.20833333333331,26.40893752605951L229.60000000000002,28.79332637092064L231.99166666666667,28.79332637092064L234.38333333333333,26.40893752605951L236.77499999999998,24.02978937939102L239.16666666666669,24.02978937939102L241.55833333333334,27.60046741548533L243.95,27.60046741548533L246.34166666666664,24.02978937939102L248.73333333333335,24.02978937939102L251.125,27.60046741548533L253.51666666666665,28.79332637092064L255.90833333333336,24.02978937939102L258.3,24.02978937939102L260.69166666666666,26.40893752605951" style="fill: none;" fill="none"></path></g></g></g></g></g></g><g transform="translate(43, 177)" clip-path="url(#clip_1)"><clipPath id="clip_1"><rect width="286" height="22"></rect></clipPath><g><g><line x1="0" y1="0" x2="0" y2="5" style="visibility: inherit;" fill="rgb(0, 0, 0)" stroke="rgb(204, 204, 204)" stroke-width="1px"></line><line x1="23.916666666666664" y1="0" x2="23.916666666666664" y2="5" style="visibility: inherit;" fill="rgb(0, 0, 0)" stroke="rgb(204, 204, 204)" stroke-width="1px"></line><line x1="47.83333333333333" y1="0" x2="47.83333333333333" y2="5" style="visibility: inherit;" fill="rgb(0, 0, 0)" stroke="rgb(204, 204, 204)" stroke-width="1px"></line><line x1="71.75" y1="0" x2="71.75" y2="5" style="visibility: inherit;" fill="rgb(0, 0, 0)" stroke="rgb(204, 204, 204)" stroke-width="1px"></line><line x1="95.66666666666666" y1="0" x2="95.66666666666666" y2="5" style="visibility: inherit;" fill="rgb(0, 0, 0)" stroke="rgb(204, 204, 204)" stroke-width="1px"></line><line x1="119.58333333333334" y1="0" x2="119.58333333333334" y2="5" style="visibility: inherit;" fill="rgb(0, 0, 0)" stroke="rgb(204, 204, 204)" stroke-width="1px"></line><line x1="143.5" y1="0" x2="143.5" y2="5" style="visibility: inherit;" fill="rgb(0, 0, 0)" stroke="rgb(204, 204, 204)" stroke-width="1px"></line><line x1="167.41666666666669" y1="0" x2="167.41666666666669" y2="5" style="visibility: inherit;" fill="rgb(0, 0, 0)" stroke="rgb(204, 204, 204)" stroke-width="1px"></line><line x1="191.33333333333331" y1="0" x2="191.33333333333331" y2="5" style="visibility: inherit;" fill="rgb(0, 0, 0)" stroke="rgb(204, 204, 204)" stroke-width="1px"></line><line x1="215.25" y1="0" x2="215.25" y2="5" style="visibility: inherit;" fill="rgb(0, 0, 0)" stroke="rgb(204, 204, 204)" stroke-width="1px"></line><line x1="239.16666666666669" y1="0" x2="239.16666666666669" y2="5" style="visibility: inherit;" fill="rgb(0, 0, 0)" stroke="rgb(204, 204, 204)" stroke-width="1px"></line><line x1="263.0833333333333" y1="0" x2="263.0833333333333" y2="5" style="visibility: inherit;" fill="rgb(0, 0, 0)" stroke="rgb(204, 204, 204)" stroke-width="1px"></line><line x1="287" y1="0" x2="287" y2="5" style="visibility: inherit;" fill="rgb(0, 0, 0)" stroke="rgb(204, 204, 204)" stroke-width="1px"></line></g><g transform="translate(0, 8)"><text x="0" y="0" dx="0em" dy="0.95em" style="text-anchor: middle; visibility: hidden; font-family: Roboto, sans-serif; font-size: 12px; font-weight: 200;" fill="rgb(33, 33, 33)" stroke="none" stroke-width="1px">-10</text><text x="23.916666666666664" y="0" dx="0em" dy="0.95em" style="text-anchor: middle; visibility: inherit; font-family: Roboto, sans-serif; font-size: 12px; font-weight: 200;" fill="rgb(33, 33, 33)" stroke="none" stroke-width="1px">0</text><text x="47.83333333333333" y="0" dx="0em" dy="0.95em" style="text-anchor: middle; visibility: inherit; font-family: Roboto, sans-serif; font-size: 12px; font-weight: 200;" fill="rgb(33, 33, 33)" stroke="none" stroke-width="1px">10</text><text x="71.75" y="0" dx="0em" dy="0.95em" style="text-anchor: middle; visibility: inherit; font-family: Roboto, sans-serif; font-size: 12px; font-weight: 200;" fill="rgb(33, 33, 33)" stroke="none" stroke-width="1px">20</text><text x="95.66666666666666" y="0" dx="0em" dy="0.95em" style="text-anchor: middle; visibility: inherit; font-family: Roboto, sans-serif; font-size: 12px; font-weight: 200;" fill="rgb(33, 33, 33)" stroke="none" stroke-width="1px">30</text><text x="119.58333333333334" y="0" dx="0em" dy="0.95em" style="text-anchor: middle; visibility: inherit; font-family: Roboto, sans-serif; font-size: 12px; font-weight: 200;" fill="rgb(33, 33, 33)" stroke="none" stroke-width="1px">40</text><text x="143.5" y="0" dx="0em" dy="0.95em" style="text-anchor: middle; visibility: inherit; font-family: Roboto, sans-serif; font-size: 12px; font-weight: 200;" fill="rgb(33, 33, 33)" stroke="none" stroke-width="1px">50</text><text x="167.41666666666669" y="0" dx="0em" dy="0.95em" style="text-anchor: middle; visibility: inherit; font-family: Roboto, sans-serif; font-size: 12px; font-weight: 200;" fill="rgb(33, 33, 33)" stroke="none" stroke-width="1px">60</text><text x="191.33333333333331" y="0" dx="0em" dy="0.95em" style="text-anchor: middle; visibility: inherit; font-family: Roboto, sans-serif; font-size: 12px; font-weight: 200;" fill="rgb(33, 33, 33)" stroke="none" stroke-width="1px">70</text><text x="215.25" y="0" dx="0em" dy="0.95em" style="text-anchor: middle; visibility: inherit; font-family: Roboto, sans-serif; font-size: 12px; font-weight: 200;" fill="rgb(33, 33, 33)" stroke="none" stroke-width="1px">80</text><text x="239.16666666666669" y="0" dx="0em" dy="0.95em" style="text-anchor: middle; visibility: inherit; font-family: Roboto, sans-serif; font-size: 12px; font-weight: 200;" fill="rgb(33, 33, 33)" stroke="none" stroke-width="1px">90</text><text x="263.0833333333333" y="0" dx="0em" dy="0.95em" style="text-anchor: middle; visibility: inherit; font-family: Roboto, sans-serif; font-size: 12px; font-weight: 200;" fill="rgb(33, 33, 33)" stroke="none" stroke-width="1px">100</text><text x="287" y="0" dx="0em" dy="0.95em" style="text-anchor: middle; visibility: hidden; font-family: Roboto, sans-serif; font-size: 12px; font-weight: 200;" fill="rgb(33, 33, 33)" stroke="none" stroke-width="1px">110</text></g><line x1="0" y1="0" x2="287" y2="0" fill="rgb(0, 0, 0)" stroke="rgb(204, 204, 204)" stroke-width="1px"></line></g></g></g></g></svg>